<?xml version="1.0"?>
<svg width="100" height="100" xmlns="http://www.w3.org/2000/svg" xmlns:svg="http://www.w3.org/2000/svg">
 <g class="layer">
  <title>Layer 1</title>
  <g fill="#000000" fill-rule="evenodd" font-size="9pt" id="svgGroup" stroke="#000" stroke-linecap="round" stroke-width="0.25mm">
   <path d="m86.72,54.53q1.4,1.6 2.35,3.9q0.95,2.3 1.45,5.2q1,5.7 -0.2,11.2q-1.2,5.4 -4,7q-8,4.6 -18,7.3q-10,2.7 -22,3.3q-24,1.2 -32.2,-9q-5.3,-6.6 -1.6,-15.3q0.8,-1.8 2.15,-3.75q1.35,-1.95 3.25,-4.05q0.6,-0.7 1.3,-0.5q0.5,0.1 0.7,0.8q0.2,0.6 -0.3,1.1q-1.8,2 -2.9,4.3q-1,2.2 -0.5,4.1q3.5,13 29,12.5q12.8,-0.2 23.25,-2.65q10.45,-2.45 18.65,-7.15q-0.3,-3.9 -4.8,-9.6q-0.2,-0.3 0.2,-2.4q0.1,-0.2 0.1,-0.3q0.5,-2.4 2.2,-6q0.6,-1.4 1.9,0zm-36.2,-7.8l3.2,-4.8q0.2,-0.3 0.8,-0.2q1.7,0.7 3.3,1.6q1.6,0.9 3,2.1q0.4,0.4 0.1,0.8l-4.3,6.9q-0.2,0.3 -0.8,-0.2q-0.3,-0.3 -1.55,-1.05q-1.25,-0.75 -3.55,-2.05l-3.4,5.3q-0.3,0.4 -0.9,-0.1q-0.4,-0.3 -1.95,-1.3q-1.55,-1 -4.35,-2.7q-0.4,-0.2 -0.1,-0.5l4.4,-6.6q0.2,-0.3 0.7,-0.2q1.5,0.5 2.85,1.3q1.35,0.8 2.55,1.7z" id="1"/>
  </g>
 </g>
</svg>